<svg id="Layer_1" enable-background="new 0 0 512 512" height="512" viewBox="0 0 512 512" width="512" xmlns="http://www.w3.org/2000/svg"><g><path d="m467 71.36h-422c-24.813 0-45 20.187-45 45v279.28c0 24.813 20.187 45 45 45h422c24.813 0 45-20.187 45-45v-279.28c0-24.813-20.187-45-45-45z" fill="#073563"/><circle cx="75" cy="365.64" fill="#ffe705" r="15"/><circle cx="75" cy="146.36" fill="#073563" r="15"/><path d="m467 71.36h-211v369.28h211c24.813 0 45-20.187 45-45v-279.28c0-24.813-20.187-45-45-45z" fill="#000f33"/><circle cx="437" cy="365.64" fill="#ffcb00" r="15"/><path d="m438.95 161.237c-9.812 1.237-18.063-7.015-16.827-16.827.842-6.685 6.241-12.084 12.926-12.927 9.812-1.237 18.064 7.015 16.827 16.827-.842 6.686-6.241 12.085-12.926 12.927z" fill="#ffcb00"/><path d="m372.947 191.361h-233.611l46.222 49.071-46.222 56.223h233.611c.831 0-44.152-52.647-44.152-52.647z" fill="#ffe705"/><path d="m139.053 296.654c-29.03 0-52.647-23.617-52.647-52.647s23.617-52.647 52.647-52.647 52.647 23.617 52.647 52.647-23.617 52.647-52.647 52.647zm0-75.293c-12.488 0-22.647 10.159-22.647 22.647s10.159 22.647 22.647 22.647 22.647-10.159 22.647-22.647-10.159-22.647-22.647-22.647z" fill="#98f9ff"/><path d="m372.947 191.361h-116.947v105.293h116.947l-44.205-52.646z" fill="#ffcb00"/><path d="m372.947 296.654c-29.03 0-52.647-23.617-52.647-52.647s23.617-52.647 52.647-52.647 52.647 23.617 52.647 52.647-23.617 52.647-52.647 52.647zm0-75.293c-12.488 0-22.647 10.159-22.647 22.647s10.159 22.647 22.647 22.647 22.647-10.159 22.647-22.647-10.159-22.647-22.647-22.647z" fill="#7dd5f4"/><g fill="#ffe705"><path d="m353.363 161.361h-194.726c-8.284 0-15-6.716-15-15s6.716-15 15-15h194.727c8.284 0 15 6.716 15 15s-6.717 15-15.001 15z"/><path d="m408.299 419.228-30.254-63.985c-2.479-5.244-7.76-8.588-13.561-8.588h-216.968c-5.8 0-11.081 3.344-13.561 8.588l-30.254 63.985c-2.197 4.647-1.862 10.095.888 14.438s7.532 6.974 12.672 6.974h277.477c5.14 0 9.922-2.632 12.672-6.974s3.086-9.792.889-14.438z"/><circle cx="75" cy="146.36" r="15"/></g><circle cx="437" cy="365.64" fill="none" r="15"/><circle cx="75" cy="365.64" fill="none" r="15"/><path d="m368.363 146.36c0-8.284-6.716-15-15-15h-97.363v30h97.363c8.284 0 15-6.715 15-15z" fill="#ffcb00"/><path d="m394.738 440.64c5.14 0 9.922-2.632 12.672-6.974s3.085-9.791.888-14.438l-30.254-63.985c-2.479-5.244-7.76-8.588-13.561-8.588h-108.483v93.985z" fill="#ffcb00"/></g></svg>